<svg xmlns="http://www.w3.org/2000/svg" xmlns:xlink="http://www.w3.org/1999/xlink" width="994.138" height="228.222" viewBox="0 0 994.138 228.222">
  <defs>
    <filter id="Línea_1" x="32.138" y="1.222" width="33" height="227" filterUnits="userSpaceOnUse">
      <feOffset dy="3" input="SourceAlpha"/>
      <feGaussianBlur stdDeviation="3" result="blur"/>
      <feFlood flood-color="#fff" flood-opacity="0.161"/>
      <feComposite operator="in" in2="blur"/>
      <feComposite in="SourceGraphic"/>
    </filter>
    <filter id="Trazado_1" x="0" y="0" width="96.572" height="94.84" filterUnits="userSpaceOnUse">
      <feOffset dy="3" input="SourceAlpha"/>
      <feGaussianBlur stdDeviation="3" result="blur-2"/>
      <feFlood flood-color="#fff" flood-opacity="0.161"/>
      <feComposite operator="in" in2="blur-2"/>
      <feComposite in="SourceGraphic"/>
    </filter>
  </defs>
  <g id="Grupo_3" data-name="Grupo 3" transform="translate(-457.862 -590.278)">
    <text id="Bar_El_Mercado" data-name="Bar El Mercado" transform="translate(634 749)" fill="#fff" font-size="116" font-family="SofiaProSoftMedium, Sofia Pro Soft"><tspan x="0" y="0">Bar El Mercado</tspan></text>
    <g id="Grupo_1" data-name="Grupo 1" transform="translate(-5 13.5)">
      <g transform="matrix(1, 0, 0, 1, 462.86, 576.78)" filter="url(#Línea_1)">
        <line id="Línea_1-2" data-name="Línea 1" y2="194" transform="translate(48.64 14.72)" fill="none" stroke="#fff" stroke-linecap="round" stroke-width="15"/>
      </g>
      <g transform="matrix(1, 0, 0, 1, 462.86, 576.78)" filter="url(#Trazado_1)">
        <path id="Trazado_1-2" data-name="Trazado 1" d="M480.024,229.5s-10.885,61.885,30.314,60.6,30.4-60.6,30.4-60.6" transform="translate(-462.08 -214.78)" fill="none" stroke="#fff" stroke-linecap="round" stroke-width="15"/>
      </g>
    </g>
    <g id="Grupo_2" data-name="Grupo 2" transform="translate(-5 13.5)">
      <line id="Línea_2" data-name="Línea 2" y2="194" transform="translate(600.5 591.5)" fill="none" stroke="#fff" stroke-linecap="round" stroke-width="15"/>
      <path id="Trazado_2" data-name="Trazado 2" d="M600.5,361.764H570.153V261.34s3.776-31.07,30.347-31.813" transform="translate(0 362)" fill="none" stroke="#fff" stroke-linecap="round" stroke-width="15"/>
    </g>
  </g>
</svg>
